<svg xmlns="http://www.w3.org/2000/svg" width="70" height="24" viewBox="0 0 70 24">
  <defs>
    <style>
      .cls-1 {
        fill: #bfaf8f;
      }
    </style>
  </defs>
  <g id="그룹_142" data-name="그룹 142" transform="translate(-11707.85 13234.781)">
    <path id="path3373" class="cls-1" d="M595.495-223.838a1.4,1.4,0,0,1,1.4-1.4,1.4,1.4,0,0,1,1.4,1.4,1.4,1.4,0,0,1-1.4,1.4,1.4,1.4,0,0,1-1.4-1.4h0" transform="translate(11147.845 -13001.425)"/>
    <path id="path3375" class="cls-1" d="M548.693-181.076H551.7l-3.438,6.9c-.1.209-.188.449-.081.591.161.215.527.07.994-.161l3.251-1.612-.7,1.263s-2.991,1.625-3.815,1.961c-.483.2-1.988,1.02-2.74.447a1.27,1.27,0,0,1-.484-.957,3.074,3.074,0,0,1,.591-1.693l3.412-6.744h0" transform="translate(11192.995 -13040.129)"/>
    <path id="path3377" class="cls-1" d="M620.894-179.126c1.219-.729,3.159-1.809,3.159-1.809,1.336-.766,3.141-1.426,3.905-.575.746.833-.069,2.372-.89,3.533l-2.166,3.065a.548.548,0,0,0-.081.591c.162.215.527.07.994-.161l3.251-1.612-.7,1.263s-2.99,1.625-3.815,1.961c-.483.2-1.988,1.02-2.74.447a1.2,1.2,0,0,1-.483-.957,2.67,2.67,0,0,1,.726-1.746l1.289-1.774.824-1.134c.25-.345.661-.718.431-1.005-.244-.305-.8-.129-1.206.115a33.735,33.735,0,0,0-4.537,2.728,20.426,20.426,0,0,0-3.359,3.773H612.7l4.89-9.4H620.6l-2.365,4.351s1.609-1.031,2.656-1.658h0" transform="translate(11132.681 -13039.388)"/>
    <path id="path3379" class="cls-1" d="M764.113-178.292c1.218-.73,3.159-1.809,3.159-1.809,1.337-.766,3.142-1.426,3.906-.574.746.833-.07,2.371-.891,3.533l-2.167,3.065a.55.55,0,0,0-.08.591c.16.215.526.071.994-.161l3.25-1.612-.7,1.263s-2.99,1.624-3.815,1.961c-.484.2-1.989,1.021-2.74.447a1.2,1.2,0,0,1-.484-.958,2.677,2.677,0,0,1,.726-1.746l1.289-1.773.824-1.135c.251-.345.661-.717.431-1-.243-.305-.8-.129-1.206.115a33.57,33.57,0,0,0-4.537,2.729,20.374,20.374,0,0,0-3.36,3.773h-2.791l4.89-9.4h3.009l-2.365,4.351s1.608-1.03,2.656-1.657h0" transform="translate(11005.564 -13040.13)"/>
    <path id="path3381" class="cls-1" d="M312.763-294.1a16.378,16.378,0,0,0-6.582-1.313c-3.078.128-5.691.979-7.173,2.961-1.129,1.509-.642,3.783.483,5.671l2.982,5c1.083,1.815,1.531,3.854.564,5.447-1.368,2.254-4.46,2.746-6.878,2.653a24.414,24.414,0,0,1-12.208-4.91l-1.843-1.431-3.25,1.648,3.654,2.4c3.768,2.471,13.616,6.679,20.671,3.287,4.712-2.265,4.646-6.356,2.7-9.763l-3.761-6.592a2.887,2.887,0,0,1,.215-3.52,4.513,4.513,0,0,1,3.653-1.061,11.138,11.138,0,0,1,4.11.978l2.66-1.453h0" transform="translate(11428.992 -12939.358)"/>
  </g>
</svg>
