<svg xmlns="http://www.w3.org/2000/svg" xmlns:xlink="http://www.w3.org/1999/xlink" width="346.88" height="80.65" viewBox="0 0 346.88 80.65">
  <defs>
    <style>
      .cls-1 {
        fill: #fff;
        stroke: #707070;
      }

      .cls-2 {
        fill: none;
      }

      .cls-3 {
        clip-path: url(#clip-path);
      }

      .cls-4 {
        fill: #bfaf8f;
      }
    </style>
    <clipPath id="clip-path">
      <rect id="사각형_184" data-name="사각형 184" class="cls-1" width="258" height="72" transform="translate(1579 -4644)"/>
    </clipPath>
  </defs>
  <g id="그룹_214" data-name="그룹 214" transform="translate(-1534 4778)">
    <rect id="사각형_183" data-name="사각형 183" class="cls-2" width="346.88" height="80.65" transform="translate(1534 -4778)"/>
    <g id="마스크_그룹_9" data-name="마스크 그룹 9" class="cls-3" transform="translate(-1 -130)">
      <g id="g3371" transform="translate(1540.799 -4636.272)">
        <path id="path3373" class="cls-4" d="M595.5-221.771a3.465,3.465,0,0,1,3.466-3.464,3.465,3.465,0,0,1,3.466,3.464,3.465,3.465,0,0,1-3.466,3.466,3.465,3.465,0,0,1-3.466-3.466h0" transform="translate(-432.3 244.385)"/>
        <path id="path3375" class="cls-4" d="M554.637-181.076H562.1l-8.53,17.129c-.258.518-.466,1.113-.2,1.467.4.532,1.307.174,2.466-.4l8.064-4-1.733,3.133s-7.419,4.03-9.464,4.864c-1.2.49-4.931,2.531-6.8,1.108a3.152,3.152,0,0,1-1.2-2.374c-.2-1.4.684-2.651,1.467-4.2l8.463-16.729h0" transform="translate(-395.422 212.213)"/>
        <path id="path3377" class="cls-4" d="M633.019-175.005c3.024-1.809,7.837-4.488,7.837-4.488,3.315-1.9,7.793-3.537,9.687-1.425,1.852,2.067-.171,5.883-2.208,8.763l-5.372,7.6a1.36,1.36,0,0,0-.2,1.467c.4.532,1.306.174,2.466-.4l8.064-4-1.735,3.132s-7.418,4.03-9.463,4.864c-1.2.49-4.932,2.531-6.8,1.108a2.97,2.97,0,0,1-1.2-2.374c-.134-1.534.723-2.852,1.8-4.332l3.2-4.4,2.045-2.813c.62-.855,1.639-1.78,1.069-2.494-.6-.757-1.986-.319-2.992.286a83.686,83.686,0,0,0-11.256,6.767c-4.18,3.288-8.334,9.36-8.334,9.36H612.7l12.13-23.308H632.3l-5.867,10.793s3.992-2.556,6.588-4.112h0" transform="translate(-444.835 212.818)"/>
        <path id="path3379" class="cls-4" d="M776.239-174.17c3.022-1.81,7.837-4.488,7.837-4.488,3.315-1.9,7.794-3.537,9.688-1.425,1.85,2.066-.174,5.883-2.209,8.763l-5.375,7.6a1.364,1.364,0,0,0-.2,1.467c.4.533,1.305.176,2.466-.4l8.063-4-1.733,3.133s-7.418,4.029-9.463,4.866c-1.2.488-4.933,2.532-6.8,1.108a2.973,2.973,0,0,1-1.2-2.376c-.132-1.531.725-2.852,1.8-4.331l3.2-4.4,2.044-2.816c.622-.855,1.639-1.779,1.069-2.492-.6-.758-1.986-.319-2.991.284a83.284,83.284,0,0,0-11.254,6.769c-4.183,3.286-8.336,9.36-8.336,9.36h-6.923l12.13-23.309h7.465l-5.867,10.793s3.99-2.556,6.588-4.112h0" transform="translate(-548.814 212.211)"/>
        <path id="path3381" class="cls-4" d="M362.965-292.274a42.045,42.045,0,0,0-16.328-3.133c-7.635.305-14.116,2.337-17.795,7.065-2.8,3.6-1.592,9.027,1.2,13.53l7.4,11.929c2.687,4.332,3.8,9.2,1.4,13-3.394,5.377-11.063,6.552-17.061,6.33-7.2-.266-20.331-4.281-30.285-11.715l-4.572-3.413-8.063,3.932,9.064,5.722c9.347,5.9,33.777,15.936,51.278,7.843,11.689-5.4,11.525-15.166,6.7-23.294l-9.329-15.728c-1.675-2.823-1.725-6.264.533-8.4,2.465-2.332,5.473-2.669,9.063-2.532a28.536,28.536,0,0,1,10.2,2.333l6.6-3.466h0" transform="translate(-202.487 295.423)"/>
        <path id="path3383" class="cls-4" d="M40.545-21.828h.764a1.576,1.576,0,0,0,1.038-.272,1.076,1.076,0,0,0,.308-.858.879.879,0,0,0-.273-.748,1.917,1.917,0,0,0-1.126-.229h-.712Zm.686-3.047a2.935,2.935,0,0,1,1.814.465,1.809,1.809,0,0,1,.6,1.478A1.909,1.909,0,0,1,43-21.4a2.713,2.713,0,0,1-1.777.528h-.678V-18.2H39.6v-6.672h1.629" transform="translate(-28.726 98.692)"/>
        <path id="path3385" class="cls-4" d="M78.647-24.875v.923h-2.69v1.937h2.68v.922h-2.68v1.966h2.68v.924H75.012v-6.672h3.634" transform="translate(-54.409 98.692)"/>
        <path id="path3387" class="cls-4" d="M114.2-24.875v.8l-2.869,4.941h2.926v.932h-4.076V-19l2.859-4.934h-2.681v-.94H114.2" transform="translate(-79.917 98.692)"/>
        <path id="path3389" class="cls-4" d="M150.052-24.875V-18.2h-.943v-6.672h.943" transform="translate(-108.155 98.691)"/>
        <path id="path3391" class="cls-4" d="M178.026-24.875,180.6-18.2h-1.013l-.753-1.993h-2.62l-.762,1.993h-1l2.586-6.672h.983Zm-1.478,3.789H178.5l-.982-2.582-.971,2.582h0" transform="translate(-126.541 98.691)"/>
        <path id="path3393" class="cls-4" d="M220.575-24.875v5.74h2.241v.932h-3.187v-6.672h.947" transform="translate(-159.306 98.692)"/>
        <path id="path3395" class="cls-4" d="M256.227-24.875v3.982a5.429,5.429,0,0,0,.049.867,1.161,1.161,0,0,0,.158.417,1.209,1.209,0,0,0,.443.424,1.251,1.251,0,0,0,.6.146,1.185,1.185,0,0,0,1.044-.566,1.3,1.3,0,0,0,.159-.427,5.092,5.092,0,0,0,.049-.86v-3.982h.939v4.2a3.038,3.038,0,0,1-.529,1.943,1.991,1.991,0,0,1-1.619.665,2.114,2.114,0,0,1-1.7-.651,3,3,0,0,1-.541-1.958v-4.2h.943" transform="translate(-185.322 98.691)"/>
        <path id="path3397" class="cls-4" d="M299.094-24.875v2.852h2.733v-2.852h.925V-18.2h-.925v-2.909h-2.733V-18.2h-.942v-6.672h.942" transform="translate(-216.442 98.691)"/>
        <path id="path3399" class="cls-4" d="M343.914-24.875a2.819,2.819,0,0,1,1.852.551,1.942,1.942,0,0,1,.674,1.579,2.149,2.149,0,0,1-.473,1.41,1.692,1.692,0,0,1-.976.61l1.587,2.522h-1.138l-2.075-3.38h.884a1.1,1.1,0,0,0,1.2-1.1,1.115,1.115,0,0,0-.363-.95,2.3,2.3,0,0,0-1.342-.3h-.755V-18.2h-.944v-6.672h1.869" transform="translate(-248.306 98.691)"/>
        <path id="path3401" class="cls-4" d="M386.7-24.875v.923h-2.69v1.937h2.682v.922h-2.682v1.966h2.682v.924h-3.625v-6.672H386.7" transform="translate(-278.083 98.692)"/>
        <path id="path3403" class="cls-4" d="M423-24.875l3.192,5.193v-5.193h.921V-18.2h-1l-3.191-5.2v5.2H422v-6.672h1" transform="translate(-306.348 98.691)"/>
        <path id="path3405" class="cls-4" d="M498.753-24.875v.8l-2.867,4.941h2.923v.932h-4.075V-19l2.858-4.934h-2.679v-.94h3.84" transform="translate(-359.15 98.692)"/>
        <path id="path3407" class="cls-4" d="M533.626-24.875v3.982a5.1,5.1,0,0,0,.05.867,1.126,1.126,0,0,0,.157.417,1.212,1.212,0,0,0,.442.424,1.259,1.259,0,0,0,.6.146,1.183,1.183,0,0,0,1.045-.566,1.281,1.281,0,0,0,.159-.427,5.156,5.156,0,0,0,.05-.86v-3.982h.938v4.2a3.038,3.038,0,0,1-.529,1.943,1.991,1.991,0,0,1-1.619.665,2.116,2.116,0,0,1-1.7-.651,3,3,0,0,1-.541-1.958v-4.2h.943" transform="translate(-386.699 98.691)"/>
        <path id="path3409" class="cls-4" d="M645.354-24.875a2.824,2.824,0,0,1,1.853.551,1.948,1.948,0,0,1,.675,1.579,2.159,2.159,0,0,1-.475,1.41,1.7,1.7,0,0,1-.975.61l1.585,2.522H646.88l-2.075-3.38h.884a1.1,1.1,0,0,0,1.2-1.1,1.125,1.125,0,0,0-.362-.95,2.314,2.314,0,0,0-1.344-.3h-.756V-18.2h-.943v-6.672h1.869" transform="translate(-467.136 98.691)"/>
        <path id="path3411" class="cls-4" d="M684.617-24.875l2.575,6.672h-1.014l-.751-1.993h-2.621l-.761,1.993h-.995l2.581-6.672Zm-1.476,3.789h1.948l-.978-2.582-.97,2.582h0" transform="translate(-494.408 98.691)"/>
        <path id="path3413" class="cls-4" d="M728.785-24.875l3.191,5.193v-5.193h.922V-18.2h-1L728.7-23.4v5.2h-.917v-6.672h1" transform="translate(-528.333 98.691)"/>
        <path id="path3415" class="cls-4" d="M774.869-24.875v3.252l2.716-3.252h1.158l-2.708,3.235,2.642,3.437h-1.169l-2.082-2.721-.556.659V-18.2h-.937v-6.672h.937" transform="translate(-561.834 98.691)"/>
        <path id="path3417" class="cls-4" d="M818.452-24.875v.94h-2.526v1.911h2.526v.944h-2.526V-18.2h-.937v-6.672h3.462" transform="translate(-591.638 98.692)"/>
        <path id="path3419" class="cls-4" d="M853.917-24.875v3.982a5.87,5.87,0,0,0,.048.867,1.111,1.111,0,0,0,.161.417,1.165,1.165,0,0,0,.441.424,1.251,1.251,0,0,0,.6.146,1.184,1.184,0,0,0,1.044-.566,1.225,1.225,0,0,0,.157-.427,4.892,4.892,0,0,0,.053-.86v-3.982h.934v4.2a3.043,3.043,0,0,1-.524,1.943,2,2,0,0,1-1.625.665,2.111,2.111,0,0,1-1.693-.651,3,3,0,0,1-.541-1.958v-4.2h.943" transform="translate(-619.213 98.691)"/>
        <path id="path3421" class="cls-4" d="M897.6-24.875a2.819,2.819,0,0,1,1.851.551,1.944,1.944,0,0,1,.676,1.579,2.146,2.146,0,0,1-.475,1.41,1.7,1.7,0,0,1-.975.61l1.583,2.522h-1.134l-2.077-3.38h.884a1.1,1.1,0,0,0,1.2-1.1,1.118,1.118,0,0,0-.363-.95,2.3,2.3,0,0,0-1.342-.3h-.759V-18.2h-.941v-6.672h1.87" transform="translate(-650.251 98.691)"/>
        <path id="path3423" class="cls-4" d="M938.595-24.875v.94h-1.283V-18.2h-.941v-5.732H935.09v-.94h3.505" transform="translate(-678.824 98.691)"/>
        <path id="path3425" class="cls-4" d="M999.542-24.875l2.575,6.672H1001.1l-.754-1.993h-2.619l-.761,1.993h-1l2.585-6.672Zm-1.48,3.789h1.952l-.978-2.582-.974,2.582h0" transform="translate(-723.025 98.691)"/>
        <path id="path3427" class="cls-4" d="M1043.828-24.875l2.092,5.257,2.1-5.257h1.183V-18.2h-.915v-4.946L1046.31-18.2h-.771l-1.975-4.946V-18.2h-.924v-6.672h1.19" transform="translate(-757.026 98.691)"/>
        <path id="path3429" class="cls-4" d="M1178.1-24.875l2.577,6.672h-1.014l-.754-1.993h-2.62l-.758,1.993h-1l2.586-6.672Zm-1.476,3.789h1.953l-.98-2.582-.972,2.582h0" transform="translate(-852.694 98.691)"/>
        <path id="path3431" class="cls-4" d="M1219.555-24.875V-18.2h-.944v-6.672h.944" transform="translate(-884.665 98.691)"/>
        <path id="path3433" class="cls-4" d="M1248.094-24.875l3.189,5.193v-5.193h.917V-18.2h-1l-3.193-5.2v5.2h-.915v-6.672h1" transform="translate(-905.324 98.691)"/>
        <path id="path3435" class="cls-4" d="M4.295-27.419c0-.964-.573-1.519-1.56-1.84l-.15-.045C.579-29.936.243-30.938.237-31.562a2.4,2.4,0,0,1,2.492-2.53c1.668.035,2.287,1.157,2.382,2.62h-1c-.06-.923-.345-1.672-1.41-1.672a1.415,1.415,0,0,0-1.489,1.435,1.167,1.167,0,0,0,.317.783,2.858,2.858,0,0,0,1.418.754,2.812,2.812,0,0,1,2.33,2.653A2.657,2.657,0,0,1,2.6-24.728a2.437,2.437,0,0,1-1.863-.789A3.21,3.21,0,0,1,0-27.708l.938.014a2.155,2.155,0,0,0,.489,1.52,1.58,1.58,0,0,0,1.216.511,1.626,1.626,0,0,0,1.652-1.756h0" transform="translate(0 105.376)"/>
        <path id="path3437" class="cls-4" d="M609.693-32.74H606.04v2.9h3.653v1.014H606.04v4.189h-1.008l-.007-9.118h4.663l0,1.016h0" transform="translate(-439.216 105.134)"/>
        <path id="path3439" class="cls-4" d="M1127.3-26.211l3.152-7.62h1.3l0,9.139h-.984v-7.249l-3.056,7.249h-.812l-3.054-7.249v7.249h-.993l.007-9.139h1.173l3.271,7.62h0" transform="translate(-815.207 105.188)"/>
      </g>
    </g>
  </g>
</svg>
